<svg width="60" height="30" 
  viewBox="0 0 90 90"
  xmlns="http://www.w3.org/2000/svg" 
  xmlns:svg="http://www.w3.org/2000/svg">
 <g>
  <line fill="#fff" stroke="#fff" stroke-width="5" stroke-dasharray="null" stroke-linejoin="null" stroke-linecap="null" x1="2.5" y1="70" x2="82.25" y2="70" id="svg_2"/>
  <path id="svg_1" d="m232.125,174.46367l0,41.82266"/>
  <path id="svg_3" d="m232.625,173.96367l0,41.82266"/>
  <path id="svg_4" d="m232.87633,173.19884l0,42.67009"/>
  <path id="svg_5" d="m232.87633,173.19884l0,42.67009"/>
  <path id="svg_6" d="m232.87633,173.19884l0,42.67009"/>
  <path id="svg_7" d="m232.87633,173.19884l0,42.67009"/>
  <path id="svg_8" d="m232.87633,173.19884l0,42.67009"/>
  <path id="svg_9" d="m232.87633,173.19884l0,42.67009"/>
  <path id="svg_10" d="m232.87633,173.19884l0,42.67009"/>
  <path id="svg_12" d="m232.87633,173.19884l0,42.67009"/>
  <path id="svg_17" d="m232.87633,173.19884l0,42.67009"/>
  <path id="svg_22" d="m232.87633,173.19884l0,42.67009"/>
  <path id="svg_25" d="m232.87633,173.19884l0,42.67009"/>
  <path id="svg_27" d="m232.87633,173.19884l0,42.67009"/>
  <path id="svg_28" d="m232.87633,173.19884l0,42.67009"/>
  <path id="svg_29" d="m232.87633,173.19884l0,42.67009"/>
  <path id="svg_30" d="m307.62634,173.94884l0,42.67009"/>
  <path id="svg_31" d="m307.62634,173.94884l0,42.67009"/>
  <path id="svg_32" d="m307.62634,173.94884l0,42.67009"/>
  <path id="svg_33" d="m307.62634,173.94884l0,42.67009"/>
  <path id="svg_34" d="m307.62634,173.94884l0,42.67009"/>
  <path id="svg_35" d="m307.62634,173.69884l0,42.67009"/>
  <path id="svg_36" d="m307.62634,173.69884l0,42.67009"/>
  <path id="svg_37" d="m307.62634,173.69884l0,42.67009"/>
  <path id="svg_38" d="m307.62634,173.69884l0,42.67009"/>
  <path id="svg_39" d="m307.62634,173.69884l0,42.67009"/>
  <path id="svg_40" d="m307.62634,173.69884l0,42.67009"/>
  <path id="svg_41" d="m307.62634,173.69884l0,42.67009"/>
  <path id="svg_42" d="m307.62634,173.69884l0,42.67009"/>
  <path id="svg_43" d="m307.62634,224.69884l0,42.67009"/>
  <path id="svg_44" d="m307.62634,224.69884l0,42.67009"/>
  <path id="svg_45" d="m227.12634,134.69884l0,42.67009" fill="#fff"/>
  <path id="svg_46" d="m307.87634,224.69884l0,42.67009"/>
  <path id="svg_47" d="m307.87634,224.69884l0,42.67009"/>
  <path id="svg_48" d="m307.87634,224.69884l0,42.67009"/>
  <path id="svg_49" d="m307.87634,224.69884l0,42.67009"/>
  <path id="svg_50" d="m307.87634,224.69884l0,42.67009"/>
  <path id="svg_51" d="m307.87634,224.69884l0,42.67009"/>
  <path id="svg_52" d="m307.87634,224.69884l0,42.67009"/>
  <path id="svg_53" d="m307.87634,224.69884l0,42.67009"/>
  <path id="svg_54" d="m307.87634,224.69884l0,42.67009"/>
  <path id="svg_55" d="m308.6434,223.13643l0,43.57048"/>
  <path id="svg_56" d="m308.6434,223.13643l0,43.57048"/>
  <path id="svg_57" d="m308.6434,223.13643l0,43.57048"/>
  <path id="svg_58" d="m308.8934,222.88643l0,43.57048"/>
  <path id="svg_59" d="m308.8934,222.88643l0,43.57048"/>
  <path id="svg_60" d="m308.8934,222.88643l0,43.57048"/>
  <path id="svg_61" d="m308.8934,222.88643l0,43.57048"/>
  <path id="svg_62" d="m308.8934,222.88643l0,43.57048"/>
  <path id="svg_63" d="m308.8934,222.88643l0,43.57048"/>
  <path id="svg_64" d="m308.8934,222.88643l0,43.57048"/>
  <path id="svg_65" d="m308.8934,222.88643l0,43.57048"/>
  <path id="svg_66" d="m308.8934,222.88643l0,43.57048"/>
  <path id="svg_67" d="m308.8934,222.88643l0,43.57048"/>
  <path id="svg_68" d="m308.8934,222.88643l0,43.57048"/>
  <path id="svg_69" d="m308.8934,222.88643l0,43.57048"/>
  <path id="svg_70" d="m308.8934,222.88643l0,43.57048"/>
  <path id="svg_71" d="m308.8934,222.88643l0,43.57048"/>
  <path id="svg_72" d="m308.8934,222.88643l0,43.57048"/>
  <path id="svg_73" d="m308.8934,222.88643l0,43.57048"/>
  <path id="svg_74" d="m308.8934,222.88643l0,43.57048"/>
  <path id="svg_75" d="m308.8934,222.88643l0,43.57048"/>
  <path id="svg_76" d="m308.8934,222.88643l0,43.57048"/>
  <path id="svg_77" d="m308.8934,222.88643l0,43.57048"/>
  <path id="svg_78" d="m308.8934,222.88643l0,43.57048"/>
  <path id="svg_79" d="m308.8934,222.88643l0,43.57048"/>
  <path id="svg_80" d="m308.8934,222.88643l0,43.57048"/>
  <path id="svg_81" d="m308.8934,222.88643l0,43.57048"/>
  <path id="svg_82" d="m308.8934,222.88643l0,43.57048"/>
  <path id="svg_83" d="m308.8934,222.88643l0,43.57048"/>
  <path id="svg_84" d="m308.8934,222.88643l0,43.57048"/>
  <path id="svg_85" d="m308.8934,222.88643l0,43.57048"/>
  <path id="svg_86" d="m308.8934,222.88643l0,43.57048"/>
  <path id="svg_87" d="m308.8934,222.88643l0,43.57048"/>
  <path id="svg_88" d="m308.8934,222.88643l0,43.57048"/>
  <path id="svg_89" d="m308.8934,222.88643l0,43.57048"/>
  <path id="svg_90" d="m308.8934,222.88643l0,43.57048"/>
  <path id="svg_91" d="m308.8934,222.88643l0,43.57048"/>
  <path id="svg_92" d="m308.8934,222.88643l0,43.57048"/>
  <path id="svg_93" d="m308.8934,222.88643l0,43.57048"/>
  <path id="svg_94" d="m308.8934,222.88643l0,43.57048"/>
  <path id="svg_95" d="m308.8934,222.88643l0,43.57048"/>
  <path id="svg_96" d="m308.8934,222.88643l0,43.57048"/>
  <path id="svg_97" d="m308.8934,222.88643l0,43.57048"/>
  <path id="svg_98" d="m308.8934,222.88643l0,43.57048"/>
  <path id="svg_99" d="m308.8934,222.88643l0,43.57048"/>
  <path id="svg_100" d="m308.8934,222.88643l0,43.57048"/>
  <path id="svg_101" d="m308.8934,222.88643l0,43.57048"/>
  <path id="svg_102" d="m308.8934,222.88643l0,43.57048"/>
  <path id="svg_103" d="m308.8934,222.88643l0,43.57048"/>
  <path id="svg_104" d="m308.8934,222.88643l0,43.57048"/>
  <path id="svg_105" d="m308.8934,222.88643l0,43.57048"/>
  <path id="svg_106" d="m308.8934,222.88643l0,43.57048"/>
  <path id="svg_107" d="m308.8934,222.88643l0,43.57048"/>
  <path id="svg_108" d="m308.8934,222.88643l0,43.57048"/>
  <path id="svg_109" d="m308.8934,222.88643l0,43.57048"/>
  <path id="svg_110" d="m308.8934,222.88643l0,43.57048"/>
  <path id="svg_111" d="m308.8934,222.88643l0,43.57048"/>
  <path id="svg_112" d="m308.8934,222.88643l0,43.57048"/>
  <path id="svg_113" d="m308.8934,222.88643l0,43.57048"/>
  <path id="svg_114" d="m308.8934,222.88643l0,43.57048"/>
  <path id="svg_115" d="m308.8934,222.88643l0,43.57048"/>
  <path id="svg_116" d="m308.8934,222.88643l0,43.57048"/>
  <path id="svg_117" d="m308.8934,222.88643l0,43.57048"/>
  <path id="svg_118" d="m308.8934,222.88643l0,43.57048"/>
  <path id="svg_119" d="m308.8934,222.88643l0,43.57048"/>
  <path id="svg_120" d="m308.8934,222.88643l0,43.57048"/>
  <path id="svg_121" d="m308.8934,222.88643l0,43.57048"/>
  <path id="svg_122" d="m308.8934,222.88643l0,43.57048"/>
  <path id="svg_123" d="m308.8934,222.88643l0,43.57048"/>
  <path id="svg_124" d="m308.8934,222.88643l0,43.57048"/>
  <path id="svg_125" d="m308.8934,222.88643l0,43.57048"/>
  <path id="svg_126" d="m308.8934,222.88643l0,43.57048"/>
  <path id="svg_127" d="m308.8934,222.88643l0,43.57048"/>
  <path id="svg_128" d="m308.8934,222.88643l0,43.57048"/>
  <path id="svg_129" d="m308.8934,222.88643l0,43.57048"/>
  <path id="svg_130" d="m308.8934,222.88643l0,43.57048"/>
  <path id="svg_131" d="m308.8934,222.88643l0,43.57048"/>
  <path id="svg_132" d="m308.8934,222.88643l0,43.57048"/>
  <path id="svg_133" d="m308.8934,222.88643l0,43.57048"/>
  <path id="svg_134" d="m308.8934,222.88643l0,43.57048"/>
  <path id="svg_135" d="m91.3934,32.38644l0,43.57048"/>
  <path id="svg_136" d="m92.3934,33.38644l0,43.57048" fill="#fff"/>
  <path id="svg_137" d="m92.3934,32.38644l0,43.57048"/>
  <path id="svg_138" d="m92.3934,32.38644l0,43.57048"/>
  <path id="svg_139" d="m92.3934,32.38644l0,43.57048"/>
  <path id="svg_140" d="m92.3934,32.38644l0,43.57048"/>
  <path id="svg_141" d="m92.3934,32.38644l0,43.57048"/>
  <path d="m92.3934,32.38643l0,43.57049" id="svg_566"/>
  <path d="m92.3934,32.38643l0,43.57049" id="svg_567"/>
  <path d="m92.3934,32.38643l0,43.57049" id="svg_568"/>
  <path d="m92.3934,32.38643l0,43.57049" id="svg_569"/>
  <path d="m92.3934,32.38643l0,43.57049" id="svg_570"/>
  <path d="m92.3934,32.38643l0,43.57049" id="svg_571"/>
  <path d="m92.3934,32.38643l0,43.57049" id="svg_572"/>
  <path d="m92.3934,32.38643l0,43.57049" id="svg_573"/>
  <path d="m92.3934,32.38643l0,43.57049" id="svg_574"/>
  <path d="m92.3934,32.38643l0,43.57049" id="svg_575"/>
  <path d="m92.3934,32.38643l0,43.57049" id="svg_576"/>
  <path d="m92.3934,32.38643l0,43.57049" id="svg_577"/>
  <path d="m92.3934,32.38643l0,43.57049"/>
  <path d="m92.3934,32.38643l0,43.57049"/>
  <path d="m92.3934,32.38643l0,43.57049"/>
  <path d="m92.3934,32.38643l0,43.57049"/>
  <path d="m92.3934,32.38643l0,43.57049"/>
  <path d="m92.13487,32.6301l0,41.07058"/>
  <path d="m92.13487,32.6301l0,41.07058"/>
  <line fill="#fff" stroke="#fff" stroke-width="5" stroke-dasharray="null" stroke-linejoin="null" stroke-linecap="null" x1="92.13487" y1="32.6301" x2="92.13487" y2="73.70068" transform="rotate(36.3841, 92.1349, 53.1654)" id="svg_11"/>
  <line fill="#fff" stroke="#fff" stroke-width="5" stroke-dasharray="null" stroke-linejoin="null" stroke-linecap="null" x1="27.25" y1="37.5" x2="106.24999" y2="37.5" id="svg_13"/>
  <path id="svg_142" d="m307.87634,224.69884l0,42.67009"/>
  <path id="svg_143" d="m232.4064,222.86829l0,41.92859"/>
  <path id="svg_144" d="m232.4064,222.86829l0,41.92859"/>
  <path id="svg_145" d="m232.4064,222.86829l0,41.92859"/>
  <path id="svg_146" d="m232.4064,222.86829l0,41.92859"/>
  <path id="svg_147" d="m232.4064,222.86829l0,41.92859"/>
  <path id="svg_148" d="m232.4064,222.86829l0,41.92859"/>
  <path id="svg_149" d="m232.4064,222.86829l0,41.92859"/>
  <path id="svg_150" d="m232.4064,222.86829l0,41.92859"/>
  <path id="svg_151" d="m232.4064,222.86829l0,41.92859"/>
  <path id="svg_152" d="m232.4064,222.86829l0,41.92859"/>
  <path id="svg_153" d="m232.4064,222.86829l0,41.92859"/>
  <path id="svg_154" d="m232.4064,222.86829l0,41.92859"/>
  <path id="svg_155" d="m232.4064,222.86829l0,41.92859"/>
  <path id="svg_156" d="m232.4064,222.86829l0,41.92859"/>
  <path id="svg_157" d="m232.4064,222.86829l0,41.92859"/>
  <path id="svg_158" d="m232.4064,222.86829l0,41.92859"/>
  <path id="svg_159" d="m232.4064,222.86829l0,41.92859"/>
  <path id="svg_160" d="m232.4064,222.86829l0,41.92859"/>
  <path id="svg_161" d="m232.4064,222.86829l0,41.92859"/>
  <path id="svg_162" d="m232.4064,222.86829l0,41.92859"/>
  <path id="svg_163" d="m232.4064,222.86829l0,41.92859"/>
  <path id="svg_164" d="m232.4064,222.86829l0,41.92859"/>
  <path id="svg_165" d="m232.4064,222.86829l0,41.92859"/>
  <path id="svg_166" d="m232.4064,222.86829l0,41.92859"/>
  <path id="svg_167" d="m232.4064,222.86829l0,41.92859"/>
  <path id="svg_168" d="m232.4064,222.86829l0,41.92859"/>
  <path id="svg_169" d="m232.4064,222.86829l0,41.92859"/>
  <path id="svg_170" d="m232.4064,222.86829l0,41.92859"/>
  <path id="svg_171" d="m232.4064,222.86829l0,41.92859"/>
  <path id="svg_172" d="m232.4064,222.86829l0,41.92859"/>
  <path id="svg_173" d="m232.4064,222.86829l0,41.92859"/>
  <path id="svg_174" d="m232.4064,222.86829l0,41.92859"/>
  <path id="svg_175" d="m232.4064,222.86829l0,41.92859"/>
  <path id="svg_176" d="m232.4064,222.86829l0,41.92859"/>
  <path id="svg_177" d="m232.4064,222.86829l0,41.92859"/>
  <path id="svg_178" d="m232.4064,222.86829l0,41.92859"/>
  <path id="svg_179" d="m232.4064,222.86829l0,41.92859"/>
  <path id="svg_180" d="m232.4064,222.86829l0,41.92859"/>
  <path id="svg_181" d="m232.4064,222.86829l0,41.92859"/>
  <path id="svg_182" d="m232.4064,222.86829l0,41.92859"/>
  <path id="svg_183" d="m232.4064,222.86829l0,41.92859"/>
  <path id="svg_184" d="m232.4064,222.86829l0,41.92859"/>
  <path id="svg_185" d="m232.4064,222.86829l0,41.92859"/>
  <path id="svg_186" d="m232.4064,222.86829l0,41.92859"/>
  <path id="svg_187" d="m232.4064,222.86829l0,41.92859"/>
  <path id="svg_188" d="m232.4064,222.86829l0,41.92859"/>
  <path id="svg_189" d="m232.4064,222.86829l0,41.92859"/>
  <path id="svg_190" d="m232.4064,222.86829l0,41.92859"/>
  <path id="svg_191" d="m232.4064,222.86829l0,41.92859"/>
  <path id="svg_192" d="m232.4064,222.86829l0,41.92859"/>
  <path id="svg_193" d="m232.4064,222.86829l0,41.92859"/>
  <path id="svg_194" d="m232.4064,222.86829l0,41.92859"/>
  <path id="svg_195" d="m232.4064,222.86829l0,41.92859"/>
  <path id="svg_196" d="m232.4064,222.86829l0,41.92859"/>
  <path id="svg_197" d="m232.4064,222.86829l0,41.92859"/>
  <path id="svg_198" d="m232.4064,222.86829l0,41.92859"/>
  <path id="svg_199" d="m232.4064,222.86829l0,41.92859"/>
  <path id="svg_200" d="m232.4064,222.86829l0,41.92859"/>
  <path id="svg_201" d="m232.4064,222.86829l0,41.92859"/>
  <path id="svg_202" d="m232.4064,222.86829l0,41.92859"/>
  <path id="svg_203" d="m232.4064,222.86829l0,41.92859"/>
  <path id="svg_204" d="m232.4064,222.86829l0,41.92859"/>
  <path id="svg_205" d="m232.4064,222.86829l0,41.92859"/>
  <path id="svg_206" d="m232.4064,222.86829l0,41.92859"/>
  <path id="svg_207" d="m232.4064,222.86829l0,41.92859"/>
  <path id="svg_208" d="m232.4064,222.86829l0,41.92859"/>
  <path id="svg_209" d="m232.4064,222.86829l0,41.92859"/>
  <path id="svg_210" d="m232.4064,222.86829l0,41.92859"/>
  <path id="svg_211" d="m232.4064,222.86829l0,41.92859"/>
  <path id="svg_212" d="m232.4064,222.86829l0,41.92859"/>
  <path id="svg_213" d="m232.4064,222.86829l0,41.92859"/>
  <path id="svg_214" d="m232.4064,222.86829l0,41.92859"/>
  <path id="svg_215" d="m232.4064,222.86829l0,41.92859"/>
  <path id="svg_216" d="m232.4064,222.86829l0,41.92859"/>
  <path id="svg_217" d="m232.4064,222.86829l0,41.92859"/>
  <path id="svg_218" d="m232.4064,222.86829l0,41.92859"/>
  <path id="svg_219" d="m232.4064,222.86829l0,41.92859"/>
  <path id="svg_220" d="m232.4064,222.86829l0,41.92859"/>
  <path id="svg_221" d="m232.4064,222.86829l0,41.92859"/>
  <path id="svg_222" d="m232.4064,222.86829l0,41.92859"/>
  <path id="svg_223" d="m232.4064,222.86829l0,41.92859"/>
  <path id="svg_224" d="m232.4064,222.86829l0,41.92859"/>
  <path id="svg_225" d="m232.4064,222.86829l0,41.92859"/>
  <path id="svg_226" d="m232.4064,222.86829l0,41.92859"/>
  <path id="svg_227" d="m232.4064,222.86829l0,41.92859"/>
  <path id="svg_228" d="m232.4064,222.86829l0,41.92859"/>
  <path id="svg_229" d="m232.4064,222.86829l0,41.92859"/>
  <path id="svg_230" d="m16.4064,33.36828l0,41.92859"/>
  <path id="svg_231" d="m16.4064,32.36828l0,41.92859"/>
  <path id="svg_232" d="m16.4064,32.36828l0,41.92859"/>
  <path id="svg_233" d="m16.4064,32.36828l0,41.92859"/>
  <path id="svg_234" d="m16.4064,32.36828l0,41.92859"/>
  <path id="svg_235" d="m16.4064,32.36828l0,41.92859"/>
  <path id="svg_236" d="m16.4064,32.36828l0,41.92859"/>
  <path id="svg_237" d="m16.4064,32.36828l0,41.92859"/>
  <path id="svg_238" d="m16.4064,32.36828l0,41.92859"/>
  <path d="m16.4064,32.36828l0,41.92859" id="svg_578"/>
  <path d="m16.4064,32.36828l0,41.92859" id="svg_579"/>
  <path d="m16.4064,32.36828l0,41.92859" id="svg_580"/>
  <path d="m16.4064,32.36828l0,41.92859" id="svg_581"/>
  <path d="m16.4064,32.36828l0,41.92859" id="svg_582"/>
  <path d="m16.4064,32.36828l0,41.92859" id="svg_583"/>
  <path d="m16.4064,32.36828l0,41.92859" id="svg_584"/>
  <path d="m16.4064,32.36828l0,41.92859" id="svg_585"/>
  <path d="m16.4064,32.36828l0,41.92859" id="svg_586"/>
  <path d="m16.4064,32.36828l0,41.92859" id="svg_587"/>
  <path d="m16.4064,32.36828l0,41.92859" id="svg_588"/>
  <path d="m16.4064,32.36828l0,41.92859" id="svg_589"/>
  <path d="m16.4064,32.36828l0,41.92859"/>
  <path d="m16.4064,32.36828l0,41.92859"/>
  <path d="m16.4064,32.36828l0,41.92859"/>
  <path d="m16.4064,32.36828l0,41.92859"/>
  <path d="m16.4064,32.36828l0,41.92859"/>
  <path d="m16.4064,32.36828l0,41.92859"/>
  <path d="m16.4064,32.36828l0,41.92859"/>
  <line fill="none" stroke="#fff" stroke-width="5" stroke-dasharray="null" stroke-linejoin="null" stroke-linecap="null" x1="16.4064" y1="32.36828" x2="16.4064" y2="74.29687" transform="rotate(36.3844, 16.4064, 53.3326)" id="svg_14"/>
  <line fill="none" stroke="#fff" stroke-width="5" stroke-dasharray="null" stroke-linejoin="null" stroke-linecap="null" x1="88.625" y1="2.96366" x2="88.625" y2="57.03633" id="svg_15"/>
  <line fill="none" stroke="#fff" stroke-width="5" stroke-dasharray="null" stroke-linejoin="null" stroke-linecap="null" x1="13" y1="2.5" x2="91" y2="2.5" id="svg_16"/>
  <line fill="none" stroke="#fff" stroke-width="5" stroke-dasharray="null" stroke-linejoin="null" stroke-linecap="null" x1="15.625" y1="2.96367" x2="15.625" y2="54.53633" id="svg_18"/>
  <line fill="none" stroke="#fff" stroke-width="5" stroke-dasharray="null" stroke-linejoin="null" stroke-linecap="null" x1="41.625" y1="3.21367" x2="41.625" y2="21.03633" id="svg_19"/>
  <line fill="none" stroke="#fff" stroke-width="5" stroke-dasharray="null" stroke-linejoin="null" stroke-linecap="null" x1="57.375" y1="2.83866" x2="57.375" y2="21.91133" id="svg_20"/>
  <line fill="none" stroke="#fff" stroke-width="5" stroke-dasharray="null" stroke-linejoin="null" stroke-linecap="null" x1="48.625" y1="11.96365" x2="48.625" y2="28.03633" id="svg_21" transform="rotate(-90, 48.625, 20)"/>
  <path id="svg_239" d="m261.875,216.96365l0,9.07268"/>
  <path id="svg_240" d="m264.21362,213.20212l0,8.47296"/>
  <path id="svg_241" d="m263.7338,209.14864l0,14.68808"/>
  <path id="svg_242" d="m264.2338,208.39864l0,14.68808"/>
  <path id="svg_243" d="m264.2338,208.39864l0,14.68808"/>
  <path id="svg_244" d="m264.2338,208.39864l0,14.68808"/>
  <path id="svg_245" d="m263.9838,208.64864l0,14.68808"/>
  <path id="svg_246" d="m263.9838,208.64864l0,14.68808"/>
  <path id="svg_247" d="m263.9838,208.64864l0,14.68808"/>
  <path id="svg_248" d="m263.9838,208.64864l0,14.68808"/>
  <path id="svg_249" d="m263.9838,208.64864l0,14.68808"/>
  <path id="svg_250" d="m263.9838,208.64864l0,14.68808"/>
  <path id="svg_251" d="m262.7338,210.89864l0,14.68808"/>
  <path id="svg_252" d="m262.7338,210.89864l0,14.68808" fill="black"/>
  <path id="svg_253" d="m263.7338,210.39864l0,14.68808"/>
  <path id="svg_254" d="m263.7338,210.39864l0,14.68808"/>
  <path id="svg_255" d="m270.7338,210.89864l0,14.68808"/>
  <path id="svg_256" d="m271.2338,210.89864l0,14.68808"/>
  <path id="svg_257" d="m271.7338,210.39864l0,14.68808"/>
  <path id="svg_258" d="m271.7338,210.39864l0,14.68808"/>
  <path id="svg_259" d="m271.7338,210.39864l0,14.68808"/>
  <path id="svg_260" d="m271.2338,208.39864l0,14.68808"/>
  <path id="svg_261" d="m271.2338,208.39864l0,14.68808"/>
  <path id="svg_262" d="m271.2338,208.39864l0,14.68808"/>
  <path id="svg_263" d="m271.2338,208.39864l0,14.68808"/>
  <path id="svg_264" d="m271.2338,208.39864l0,14.68808"/>
  <path id="svg_265" d="m271.2338,208.89864l0,14.68808"/>
  <path id="svg_266" d="m271.2338,208.89864l0,14.68808"/>
  <path id="svg_267" d="m271.2338,208.89864l0,14.68808"/>
  <path id="svg_268" d="m271.2338,208.89864l0,14.68808"/>
  <path id="svg_269" d="m271.2338,208.89864l0,14.68808"/>
  <path id="svg_270" d="m271.2338,208.89864l0,14.68808"/>
  <path id="svg_271" d="m271.2338,208.89864l0,14.68808"/>
  <path id="svg_272" d="m271.2338,208.89864l0,14.68808"/>
  <path id="svg_273" d="m271.2338,208.89864l0,14.68808"/>
  <path id="svg_274" d="m271.2338,208.89864l0,14.68808"/>
  <path id="svg_275" d="m271.2338,208.89864l0,14.68808"/>
  <path id="svg_276" d="m271.2338,208.89864l0,14.68808"/>
  <path id="svg_277" d="m271.2338,208.89864l0,14.68808"/>
  <path id="svg_278" d="m271.2338,208.89864l0,14.68808"/>
  <path id="svg_279" d="m271.2338,208.89864l0,14.68808"/>
  <path id="svg_280" d="m271.2338,208.89864l0,14.68808"/>
  <path id="svg_281" d="m271.2338,208.89864l0,14.68808"/>
  <path id="svg_282" d="m270.7338,209.39864l0,14.68808"/>
  <path id="svg_283" d="m270.7338,209.39864l0,14.68808"/>
  <path id="svg_284" d="m270.7338,209.39864l0,14.68808"/>
  <path id="svg_285" d="m270.7338,209.39864l0,14.68808"/>
  <path id="svg_286" d="m270.7338,209.39864l0,14.68808"/>
  <path id="svg_287" d="m270.7338,209.39864l0,14.68808"/>
  <path id="svg_288" d="m270.7338,209.39864l0,14.68808"/>
  <path id="svg_289" d="m270.7338,209.39864l0,14.68808"/>
  <path id="svg_290" d="m270.7338,209.39864l0,14.68808"/>
  <path id="svg_291" d="m270.7338,209.39864l0,14.68808"/>
  <path id="svg_292" d="m270.7338,209.39864l0,14.68808"/>
  <path id="svg_293" d="m270.7338,209.39864l0,14.68808"/>
  <path id="svg_294" d="m270.7338,209.39864l0,14.68808"/>
  <path id="svg_295" d="m270.7338,209.39864l0,14.68808"/>
  <path id="svg_296" d="m270.7338,209.39864l0,14.68808"/>
  <path id="svg_297" d="m270.7338,209.39864l0,14.68808"/>
  <path id="svg_298" d="m270.7338,209.39864l0,14.68808"/>
  <path id="svg_299" d="m270.7338,209.39864l0,14.68808"/>
  <path id="svg_300" d="m270.7338,209.39864l0,14.68808"/>
  <path id="svg_301" d="m270.7338,209.39864l0,14.68808"/>
  <path id="svg_302" d="m270.7338,209.39864l0,14.68808"/>
  <path id="svg_303" d="m270.7338,209.39864l0,14.68808"/>
  <path id="svg_304" d="m270.7338,209.39864l0,14.68808"/>
  <path id="svg_305" d="m270.7338,209.39864l0,14.68808"/>
  <path id="svg_306" d="m270.7338,209.39864l0,14.68808"/>
  <path id="svg_307" d="m270.7338,209.39864l0,14.68808"/>
  <path id="svg_308" d="m270.7338,209.39864l0,14.68808"/>
  <path id="svg_309" d="m270.7338,209.39864l0,14.68808"/>
  <path id="svg_310" d="m270.7338,209.39864l0,14.68808"/>
  <path id="svg_311" d="m270.7338,209.39864l0,14.68808"/>
  <path id="svg_312" d="m270.7338,209.39864l0,14.68808"/>
  <path id="svg_313" d="m270.7338,209.39864l0,14.68808"/>
  <path id="svg_314" d="m270.7338,209.39864l0,14.68808"/>
  <path id="svg_315" d="m270.7338,209.39864l0,14.68808"/>
  <path id="svg_316" d="m270.7338,209.39864l0,14.68808"/>
  <path id="svg_317" d="m270.7338,209.39864l0,14.68808"/>
  <path id="svg_318" d="m270.7338,209.39864l0,14.68808"/>
  <path id="svg_319" d="m183.73378,134.39864l0,14.68808"/>
  <path id="svg_320" d="m45.23379,21.39863l0,14.68808"/>
  <path id="svg_321" d="m45.23379,21.89863l0,14.68808"/>
  <path id="svg_322" d="m45.23379,21.89863l0,14.68808"/>
  <path id="svg_323" d="m45.23379,21.89863l0,14.68808"/>
  <path id="svg_324" d="m45.23379,21.89863l0,14.68808"/>
  <path id="svg_325" d="m45.23379,21.89863l0,14.68808"/>
  <path id="svg_326" d="m45.23379,21.89863l0,14.68808"/>
  <path id="svg_327" d="m45.23379,21.89863l0,14.68808"/>
  <path id="svg_328" d="m45.23379,21.89863l0,14.68808"/>
  <path id="svg_329" d="m45.23379,21.89863l0,14.68808"/>
  <path id="svg_330" d="m45.23379,21.89863l0,14.68808"/>
  <path id="svg_331" d="m45.23379,21.89863l0,14.68808"/>
  <path d="m45.23379,21.89863l0,14.68808" id="svg_590"/>
  <path d="m45.23379,21.89863l0,14.68808" id="svg_591"/>
  <path d="m45.23379,21.89863l0,14.68808" id="svg_592"/>
  <path d="m45.23379,21.89863l0,14.68808" id="svg_593"/>
  <path d="m45.23379,21.89863l0,14.68808" id="svg_594"/>
  <path d="m45.23379,21.89863l0,14.68808" id="svg_595"/>
  <path d="m45.23379,21.89863l0,14.68808" id="svg_596"/>
  <path d="m45.23379,21.89863l0,14.68808" id="svg_597"/>
  <path d="m45.23379,21.89863l0,14.68808" id="svg_598"/>
  <path d="m45.23379,21.89863l0,14.68808" id="svg_599"/>
  <path d="m45.23379,21.89863l0,14.68808" id="svg_600"/>
  <path d="m45.23379,21.89863l0,14.68808" id="svg_601"/>
  <path d="m44.73379,17.89863l0,14.68808"/>
  <path d="m44.73379,17.89863l0,14.68808"/>
  <path d="m45.23379,17.89863l0,14.68808"/>
  <path d="m45.23379,17.89863l0,14.68808"/>
  <path d="m45.23379,17.89863l0,14.68808"/>
  <path d="m45.23379,17.89863l0,14.68808"/>
  <path d="m45.23379,17.89863l0,14.68808"/>
  <line fill="none" stroke="#fff" stroke-width="5" stroke-dasharray="null" stroke-linejoin="null" stroke-linecap="null" x1="45.23379" y1="17.89863" x2="45.23379" y2="32.58671" transform="rotate(-35.5968, 45.2338, 25.2427)" id="svg_23"/>
  <path id="svg_332" d="m265.875,218.96365l0,19.57268"/>
  <path id="svg_333" d="m271.16583,210.02669l0,11.18275"/>
  <path id="svg_334" d="m271.16583,210.02669l0,11.18275"/>
  <path id="svg_335" d="m164.16583,131.02669l0,11.18275" fill="black"/>
  <path id="svg_336" d="m270.6452,209.71971l0,13.42796"/>
  <path id="svg_337" d="m270.8952,209.21971l0,13.42796"/>
  <path id="svg_338" d="m270.8952,209.21971l0,13.42796"/>
  <path id="svg_339" d="m270.8952,209.21971l0,13.42796"/>
  <path id="svg_340" d="m270.8952,209.21971l0,13.42796"/>
  <path id="svg_341" d="m270.8952,209.21971l0,13.42796"/>
  <path id="svg_342" d="m270.8952,209.21971l0,13.42796"/>
  <path id="svg_343" d="m270.8952,209.21971l0,13.42796"/>
  <path id="svg_344" d="m270.8952,209.21971l0,13.42796" fill="black"/>
  <path id="svg_345" d="m267.8952,209.71971l0,13.42796"/>
  <path id="svg_346" d="m267.8952,209.71971l0,13.42796"/>
  <path id="svg_347" d="m267.8952,209.71971l0,13.42796"/>
  <path id="svg_348" d="m267.8952,209.71971l0,13.42796"/>
  <path id="svg_349" d="m267.8952,209.71971l0,13.42796"/>
  <path id="svg_350" d="m267.8952,209.71971l0,13.42796"/>
  <path id="svg_351" d="m267.8952,209.71971l0,13.42796"/>
  <path id="svg_352" d="m267.8952,209.71971l0,13.42796"/>
  <path id="svg_353" d="m267.8952,209.71971l0,13.42796"/>
  <path id="svg_354" d="m267.8952,209.71971l0,13.42796"/>
  <path id="svg_355" d="m267.8952,209.71971l0,13.42796"/>
  <path id="svg_356" d="m267.8952,209.71971l0,13.42796"/>
  <path id="svg_357" d="m267.8952,209.71971l0,13.42796"/>
  <path id="svg_358" d="m267.8952,209.71971l0,13.42796"/>
  <path id="svg_359" d="m267.8952,209.71971l0,13.42796"/>
  <path id="svg_360" d="m267.8952,209.71971l0,13.42796"/>
  <path id="svg_361" d="m267.8952,209.71971l0,13.42796"/>
  <path id="svg_362" d="m267.8952,209.71971l0,13.42796"/>
  <path id="svg_363" d="m267.8952,209.71971l0,13.42796"/>
  <path id="svg_364" d="m267.8952,209.71971l0,13.42796"/>
  <path id="svg_365" d="m267.8952,209.71971l0,13.42796"/>
  <path id="svg_366" d="m267.8952,209.71971l0,13.42796"/>
  <path id="svg_367" d="m267.8952,209.71971l0,13.42796"/>
  <path id="svg_368" d="m267.8952,209.71971l0,13.42796"/>
  <path id="svg_369" d="m267.8952,209.71971l0,13.42796"/>
  <path id="svg_370" d="m267.8952,209.71971l0,13.42796"/>
  <path id="svg_371" d="m267.8952,209.71971l0,13.42796"/>
  <path id="svg_372" d="m267.8952,209.71971l0,13.42796"/>
  <path id="svg_373" d="m267.8952,209.71971l0,13.42796"/>
  <path id="svg_374" d="m267.8952,209.71971l0,13.42796"/>
  <path id="svg_375" d="m267.8952,209.71971l0,13.42796"/>
  <path id="svg_376" d="m267.8952,209.71971l0,13.42796"/>
  <path id="svg_377" d="m267.8952,209.71971l0,13.42796"/>
  <path id="svg_378" d="m267.8952,209.71971l0,13.42796"/>
  <path id="svg_379" d="m267.8952,209.71971l0,13.42796"/>
  <path id="svg_380" d="m267.8952,209.71971l0,13.42796"/>
  <path id="svg_381" d="m267.8952,209.71971l0,13.42796"/>
  <path id="svg_382" d="m267.8952,209.71971l0,13.42796"/>
  <path id="svg_383" d="m267.8952,209.71971l0,13.42796"/>
  <path id="svg_384" d="m267.8952,209.71971l0,13.42796"/>
  <path id="svg_385" d="m267.8952,209.71971l0,13.42796"/>
  <path id="svg_386" d="m267.8952,209.71971l0,13.42796"/>
  <path id="svg_387" d="m267.8952,209.71971l0,13.42796"/>
  <path id="svg_388" d="m267.8952,209.71971l0,13.42796"/>
  <path id="svg_389" d="m267.8952,209.71971l0,13.42796"/>
  <path id="svg_390" d="m267.8952,209.71971l0,13.42796"/>
  <path id="svg_391" d="m267.8952,209.71971l0,13.42796"/>
  <path id="svg_392" d="m267.8952,209.71971l0,13.42796"/>
  <path id="svg_393" d="m267.8952,209.71971l0,13.42796"/>
  <path id="svg_394" d="m267.8952,209.71971l0,13.42796"/>
  <path id="svg_395" d="m267.8952,209.71971l0,13.42796"/>
  <path id="svg_396" d="m267.8952,209.71971l0,13.42796"/>
  <path id="svg_397" d="m267.8952,209.71971l0,13.42796"/>
  <path id="svg_398" d="m267.8952,209.71971l0,13.42796"/>
  <path id="svg_399" d="m267.8952,209.71971l0,13.42796"/>
  <path id="svg_400" d="m267.8952,209.71971l0,13.42796"/>
  <path id="svg_401" d="m267.8952,209.71971l0,13.42796"/>
  <path id="svg_402" d="m267.8952,209.71971l0,13.42796"/>
  <path id="svg_403" d="m267.8952,209.71971l0,13.42796"/>
  <path id="svg_404" d="m267.8952,209.71971l0,13.42796"/>
  <path id="svg_405" d="m187.8952,163.21971l0,13.42796"/>
  <path id="svg_406" d="m187.8952,163.21971l0,13.42796"/>
  <path id="svg_407" d="m187.8952,163.21971l0,13.42796"/>
  <path id="svg_408" d="m187.8952,163.21971l0,13.42796"/>
  <path id="svg_409" d="m187.8952,163.21971l0,13.42796"/>
  <path id="svg_410" d="m187.8952,163.21971l0,13.42796"/>
  <path id="svg_411" d="m187.8952,163.21971l0,13.42796"/>
  <path id="svg_412" d="m187.8952,163.21971l0,13.42796"/>
  <path id="svg_413" d="m187.8952,163.21971l0,13.42796"/>
  <path id="svg_414" d="m187.8952,163.21971l0,13.42796"/>
  <path id="svg_415" d="m187.8952,163.21971l0,13.42796"/>
  <path id="svg_416" d="m187.8952,163.21971l0,13.42796"/>
  <path id="svg_417" d="m187.8952,163.21971l0,13.42796"/>
  <path id="svg_418" d="m187.8952,163.21971l0,13.42796"/>
  <path d="m187.8952,163.21971l0,13.42796" id="svg_602"/>
  <path d="m187.8952,163.21971l0,13.42796" id="svg_603"/>
  <path d="m187.8952,163.21971l0,13.42796" id="svg_604"/>
  <path d="m187.8952,163.21971l0,13.42796" id="svg_605"/>
  <path d="m187.8952,163.21971l0,13.42796" id="svg_606"/>
  <path d="m187.8952,163.21971l0,13.42796" id="svg_607"/>
  <path d="m187.8952,163.21971l0,13.42796" id="svg_608"/>
  <path d="m187.8952,163.21971l0,13.42796" id="svg_609"/>
  <path d="m187.8952,163.21971l0,13.42796" id="svg_610"/>
  <path d="m187.8952,163.21971l0,13.42796" id="svg_611"/>
  <path d="m187.8952,163.21971l0,13.42796" id="svg_612"/>
  <path d="m187.8952,163.21971l0,13.42796" id="svg_613"/>
  <path d="m187.8952,163.21971l0,13.42796"/>
  <path d="m187.8952,163.21971l0,13.42796"/>
  <path d="m187.8952,163.21971l0,13.42796"/>
  <path d="m187.8952,163.21971l0,13.42796"/>
  <path d="m187.8952,163.21971l0,13.42796"/>
  <path d="m187.8952,163.21971l0,13.42796"/>
  <path d="m187.8952,163.21971l0,13.42796"/>
  <path id="svg_419" d="m187.8952,163.21971l0,13.42796" fill="black" transform="rotate(18.8415, 187.895, 169.934)"/>
  <path id="svg_420" d="m156.8952,109.21971l0,13.42796" fill="black"/>
  <path id="svg_421" d="m270.1452,212.46971l0,13.42796"/>
  <path id="svg_422" d="m217.1452,89.96971l0,13.42796" fill="black"/>
  <path id="svg_423" d="m127.1452,96.96971l0,13.42796" fill="black"/>
  <path id="svg_424" d="m132.6452,137.96971l0,13.42796" fill="black"/>
  <path id="svg_425" d="m277.6452,211.46971l0,13.42796"/>
  <path id="svg_426" d="m277.1452,211.96971l0,13.42796"/>
  <path id="svg_427" d="m277.1452,210.96971l0,13.42796"/>
  <path id="svg_428" d="m278.1452,211.96971l0,13.42796"/>
  <path id="svg_429" d="m278.1452,211.96971l0,13.42796"/>
  <path id="svg_430" d="m277.1452,209.46971l0,13.42796"/>
  <path id="svg_431" d="m278.1452,209.46971l0,13.42796"/>
  <path id="svg_432" d="m278.1452,209.46971l0,13.42796"/>
  <path id="svg_433" d="m278.1452,209.46971l0,13.42796"/>
  <path id="svg_434" d="m278.1452,209.46971l0,13.42796"/>
  <path id="svg_435" d="m278.1452,209.46971l0,13.42796"/>
  <path id="svg_436" d="m278.02521,209.42972l0,13.82799" fill="black"/>
  <path id="svg_437" d="m278.14526,209.46973l0,13.42776"/>
  <path id="svg_438" d="m278.14526,209.46973l0,13.42776"/>
  <path id="svg_439" d="m278.14526,209.46973l0,13.42776"/>
  <path id="svg_440" d="m278.14526,209.46973l0,13.42776"/>
  <path id="svg_441" d="m278.14526,209.46973l0,13.42776"/>
  <path id="svg_442" d="m278.64526,208.96973l0,13.42776"/>
  <path id="svg_443" d="m278.64526,208.96973l0,13.42776"/>
  <path id="svg_444" d="m278.64526,208.96973l0,13.42776"/>
  <path id="svg_445" d="m278.64526,208.96973l0,13.42776"/>
  <path id="svg_446" d="m278.64526,208.96973l0,13.42776"/>
  <path id="svg_447" d="m278.64526,208.96973l0,13.42776"/>
  <path id="svg_448" d="m278.64526,208.96973l0,13.42776"/>
  <path id="svg_449" d="m278.64526,208.46973l0,13.42776"/>
  <path id="svg_450" d="m278.64526,208.46973l0,13.42776"/>
  <path id="svg_451" d="m278.64526,208.46973l0,13.42776"/>
  <path id="svg_452" d="m278.14526,209.46973l0,13.42776"/>
  <path id="svg_453" d="m278.14526,209.46973l0,13.42776"/>
  <path id="svg_454" d="m278.14526,209.46973l0,13.42776"/>
  <path id="svg_455" d="m278.14526,209.46973l0,13.42776"/>
  <path id="svg_456" d="m278.14526,209.46973l0,13.42776"/>
  <path id="svg_457" d="m278.14526,209.46973l0,13.42776"/>
  <path id="svg_458" d="m278.14526,209.46973l0,13.42776"/>
  <path id="svg_459" d="m278.14526,209.46973l0,13.42776"/>
  <path id="svg_460" d="m278.14526,209.46973l0,13.42776"/>
  <path id="svg_461" d="m278.14526,209.46973l0,13.42776"/>
  <path id="svg_462" d="m278.14526,209.46973l0,13.42776"/>
  <path id="svg_463" d="m278.14526,209.46973l0,13.42776"/>
  <path id="svg_464" d="m278.14526,209.46973l0,13.42776"/>
  <path id="svg_465" d="m278.14526,209.46973l0,13.42776"/>
  <path id="svg_466" d="m278.14526,209.46973l0,13.42776"/>
  <path id="svg_467" d="m278.14526,209.46973l0,13.42776"/>
  <path id="svg_468" d="m278.14526,209.46973l0,13.42776"/>
  <path id="svg_469" d="m278.14526,209.46973l0,13.42776"/>
  <path id="svg_470" d="m278.14526,209.46973l0,13.42776"/>
  <path id="svg_471" d="m278.14526,209.46973l0,13.42776"/>
  <path id="svg_472" d="m278.14526,209.46973l0,13.42776"/>
  <path id="svg_473" d="m278.14526,209.46973l0,13.42776"/>
  <path id="svg_474" d="m278.14526,209.46973l0,13.42776"/>
  <path id="svg_475" d="m278.14526,209.46973l0,13.42776"/>
  <path id="svg_476" d="m278.14526,209.46973l0,13.42776"/>
  <path id="svg_477" d="m278.14526,209.46973l0,13.42776"/>
  <path id="svg_478" d="m278.14526,209.46973l0,13.42776"/>
  <path id="svg_479" d="m278.14526,209.46973l0,13.42776"/>
  <path id="svg_480" d="m278.14526,209.46973l0,13.42776"/>
  <path id="svg_481" d="m278.14526,209.46973l0,13.42776"/>
  <path id="svg_482" d="m278.14526,209.46973l0,13.42776"/>
  <path id="svg_483" d="m278.14526,209.46973l0,13.42776"/>
  <path id="svg_484" d="m278.14526,209.46973l0,13.42776"/>
  <path id="svg_485" d="m278.14526,209.46973l0,13.42776"/>
  <path id="svg_486" d="m52.64525,21.46972l0,13.42777"/>
  <path id="svg_487" d="m53.14525,22.96972l0,13.42777"/>
  <path id="svg_488" d="m53.14525,22.96972l0,13.42777"/>
  <path id="svg_489" d="m53.14525,22.96972l0,13.42777"/>
  <path id="svg_490" d="m53.14525,22.96972l0,13.42777"/>
  <path id="svg_491" d="m53.14525,22.96972l0,13.42777"/>
  <path id="svg_492" d="m53.14525,22.96972l0,13.42777"/>
  <path id="svg_493" d="m53.14525,22.96972l0,13.42777"/>
  <path id="svg_494" d="m53.14525,22.96972l0,13.42777"/>
  <path id="svg_495" d="m53.14525,22.96972l0,13.42777"/>
  <path id="svg_496" d="m53.14525,22.96972l0,13.42777"/>
  <path id="svg_497" d="m53.14525,22.96972l0,13.42777"/>
  <path id="svg_498" d="m53.14525,22.96972l0,13.42777"/>
  <path id="svg_499" d="m53.14525,22.96972l0,13.42777"/>
  <path id="svg_500" d="m53.14525,22.96972l0,13.42777"/>
  <path id="svg_501" d="m53.14525,22.96972l0,13.42777"/>
  <path d="m53.14525,22.96972l0,13.42777" id="svg_614"/>
  <path d="m53.14525,22.96972l0,13.42777" id="svg_615"/>
  <path d="m53.14525,22.96972l0,13.42777" id="svg_616"/>
  <path d="m53.14525,22.96972l0,13.42777" id="svg_617"/>
  <path d="m53.14525,22.96972l0,13.42777" id="svg_618"/>
  <path d="m53.14525,22.96972l0,13.42777" id="svg_619"/>
  <path d="m53.14525,22.96972l0,13.42777" id="svg_620"/>
  <path d="m53.14525,22.96972l0,13.42777" id="svg_621"/>
  <path d="m53.14525,22.96972l0,13.42777" id="svg_622"/>
  <path d="m53.14525,22.96972l0,13.42777" id="svg_623"/>
  <path d="m53.14525,22.96972l0,13.42777" id="svg_624"/>
  <path d="m53.14525,22.96972l0,13.42777" id="svg_625"/>
  <path d="m53.64525,18.96972l0,13.42777"/>
  <path d="m53.64525,18.96972l0,13.42777"/>
  <path d="m53.64525,18.96972l0,13.42777"/>
  <path d="m53.64525,18.96972l0,13.42777"/>
  <path d="m53.64525,18.96972l0,13.42777"/>
  <path d="m53.64525,18.96972l0,13.42777"/>
  <path d="m53.64525,18.96972l0,13.42777"/>
  <line fill="none" stroke="#fff" stroke-width="5" stroke-dasharray="null" stroke-linejoin="null" stroke-linecap="null" x1="53.64525" y1="18.96972" x2="53.64525" y2="32.39749" transform="rotate(39.5517, 53.6452, 25.6836)" id="svg_24"/>
  <path id="svg_502" d="m272.875,219.375l3.5,2.5"/>
  <path id="svg_503" d="m273.375,219.375l3.5,2.5"/>
  <path id="svg_504" d="m273.875,218.375l3.5,2.5" fill="black"/>
  <path id="svg_505" d="m273.875,218.875l3.5,2.5"/>
  <path id="svg_506" d="m394.32559,233.2534l2.02835,0.5816"/>
  <path id="svg_507" d="m394.36566,236.25446l2.02835,-0.94261"/>
  <path id="svg_508" d="m397.95523,236.34886l-1.65076,2.36856"/>
  <path id="svg_509" d="m274.95523,220.34886l-1.65076,2.36856"/>
  <path id="svg_510" d="m276.45523,219.84886l-1.65076,2.36856" fill="black"/>
  <path id="svg_511" d="m275.45523,220.84886l-1.65076,2.36856"/>
  <path id="svg_512" d="m275.45523,220.84886l-1.65076,2.36856"/>
  <path id="svg_513" d="m275.45523,220.84886l-1.65076,2.36856"/>
  <path id="svg_514" d="m275.45523,220.84886l-1.65076,2.36856"/>
  <path id="svg_515" d="m275.45523,220.84886l-1.65076,2.36856"/>
  <path id="svg_516" d="m275.45523,220.84886l-1.65076,2.36856"/>
  <path id="svg_517" d="m274.95523,220.84886l-1.65076,2.36856"/>
  <path id="svg_518" d="m274.95523,220.84886l-1.65076,2.36856"/>
  <path id="svg_519" d="m274.95523,220.84886l-1.65076,2.36856"/>
  <path id="svg_520" d="m274.95523,220.84886l-1.65076,2.36856"/>
  <path id="svg_521" d="m274.95523,220.84886l-1.65076,2.36856"/>
  <path id="svg_522" d="m274.95523,220.84886l-1.65076,2.36856"/>
  <path id="svg_523" d="m274.95523,220.84886l-1.65076,2.36856"/>
  <path id="svg_524" d="m274.95523,220.84886l-1.65076,2.36856"/>
  <path id="svg_525" d="m274.95523,220.84886l-1.65076,2.36856"/>
  <path id="svg_526" d="m274.95523,220.84886l-1.65076,2.36856"/>
  <path id="svg_527" d="m274.95523,220.84886l-1.65076,2.36856"/>
  <path id="svg_528" d="m274.95523,220.84886l-1.65076,2.36856"/>
  <path id="svg_529" d="m274.95523,220.84886l-1.65076,2.36856"/>
  <path id="svg_530" d="m274.95523,220.84886l-1.65076,2.36856"/>
  <path id="svg_531" d="m274.95523,220.84886l-1.65076,2.36856"/>
  <path id="svg_532" d="m274.95523,220.84886l-1.65076,2.36856"/>
  <path id="svg_533" d="m274.95523,220.84886l-1.65076,2.36856"/>
  <path id="svg_534" d="m274.95523,220.84886l-1.65076,2.36856"/>
  <path id="svg_535" d="m274.95523,220.84886l-1.65076,2.36856"/>
  <path id="svg_536" d="m274.95523,220.84886l-1.65076,2.36856"/>
  <path id="svg_537" d="m274.95523,220.84886l-1.65076,2.36856"/>
  <path id="svg_538" d="m274.95523,220.84886l-1.65076,2.36856"/>
  <path id="svg_539" d="m274.95523,220.84886l-1.65076,2.36856"/>
  <path id="svg_540" d="m274.95523,220.84886l-1.65076,2.36856"/>
  <path id="svg_541" d="m274.95523,220.84886l-1.65076,2.36856"/>
  <path id="svg_542" d="m274.95523,220.84886l-1.65076,2.36856"/>
  <path id="svg_543" d="m274.95523,220.84886l-1.65076,2.36856"/>
  <path id="svg_544" d="m274.95523,220.84886l-1.65076,2.36856"/>
  <path id="svg_545" d="m274.95523,220.84886l-1.65076,2.36856"/>
  <path id="svg_546" d="m274.95523,220.84886l-1.65076,2.36856"/>
  <path id="svg_547" d="m274.95523,220.84886l-1.65076,2.36856"/>
  <path id="svg_548" d="m274.95523,220.84886l-1.65076,2.36856"/>
  <path id="svg_549" d="m274.95523,220.84886l-1.65076,2.36856"/>
  <path id="svg_550" d="m274.95523,220.84886l-1.65076,2.36856"/>
  <path id="svg_551" d="m274.95523,220.84886l-1.65076,2.36856"/>
  <path id="svg_552" d="m299.45523,189.84886l-1.65076,2.36856"/>
  <path id="svg_553" d="m299.45523,189.84886l-1.65076,2.36856"/>
  <path id="svg_554" d="m299.45523,189.84886l-1.65076,2.36856"/>
  <path id="svg_555" d="m299.45523,189.84886l-1.65076,2.36856"/>
  <path id="svg_556" d="m50.45523,34.34887l-1.65077,2.36856"/>
  <path id="svg_557" d="m49.95523,34.84887l-1.65077,2.36856"/>
  <path id="svg_558" d="m49.95523,34.84887l-1.65077,2.36856"/>
  <path id="svg_559" d="m49.95523,34.84887l-1.65077,2.36856"/>
  <path id="svg_560" d="m49.95523,34.84887l-1.65077,2.36856"/>
  <path id="svg_561" d="m49.95523,34.84887l-1.65077,2.36856"/>
  <path id="svg_562" d="m49.95523,34.84887l-1.65077,2.36856"/>
  <path id="svg_563" d="m49.95523,34.84887l-1.65077,2.36856"/>
  <path id="svg_564" d="m49.95523,34.84887l-1.65077,2.36856"/>
  <path id="svg_565" d="m49.95523,34.84887l-1.65077,2.36856"/>
  <path d="m49.95523,34.84887l-1.65076,2.36856" id="svg_626"/>
  <path d="m49.95523,34.84887l-1.65076,2.36856" id="svg_627"/>
  <path d="m49.95523,34.84887l-1.65076,2.36856" id="svg_628"/>
  <path d="m49.95523,34.84887l-1.65076,2.36856" id="svg_629"/>
  <path d="m49.95523,34.84887l-1.65076,2.36856" id="svg_630"/>
  <path d="m49.95523,34.84887l-1.65076,2.36856" id="svg_631"/>
  <path d="m49.95523,34.84887l-1.65076,2.36856" id="svg_632"/>
  <path d="m49.95523,34.84887l-1.65076,2.36856" id="svg_633"/>
  <path d="m49.95523,34.84887l-1.65076,2.36856" id="svg_634"/>
  <path d="m49.95523,34.84887l-1.65076,2.36856" id="svg_635"/>
  <path d="m49.95523,34.84887l-1.65076,2.36856" id="svg_636"/>
  <path d="m49.95523,34.84887l-1.65076,2.36856" id="svg_637"/>
  <path d="m49.95523,34.84887l-1.65076,2.36856" id="svg_638"/>
  <path d="m49.95523,30.34887l-1.65076,2.36856"/>
  <path d="m49.95523,30.34887l-1.65076,2.36856"/>
  <path d="m49.15426,31.25436l-0.54882,2.55758"/>
  <path d="m49.15426,31.25436l-0.54882,2.55758"/>
  <path d="m49.65426,29.75436l-0.54882,2.55758"/>
  <path d="m49.65426,29.75436l-0.54882,2.55758"/>
  <path d="m49.65426,29.75436l-0.54882,2.55758"/>
  <line fill="none" stroke="#fff" stroke-width="5" stroke-dasharray="null" stroke-linejoin="null" stroke-linecap="null" x1="49.65426" y1="29.75436" x2="49.10544" y2="32.31194" id="svg_26" transform="rotate(78.6569, 49.3798, 31.0331)"/>
 </g>
</svg>